<?xml version="1.0" encoding="UTF-8" standalone="no"?>
<!-- Generator: Adobe Illustrator 18.1.1, SVG Export Plug-In . SVG Version: 6.00 Build 0)  -->

<svg
   xmlns:dc="http://purl.org/dc/elements/1.1/"
   xmlns:cc="http://creativecommons.org/ns#"
   xmlns:rdf="http://www.w3.org/1999/02/22-rdf-syntax-ns#"
   xmlns:svg="http://www.w3.org/2000/svg"
   xmlns="http://www.w3.org/2000/svg"
   xmlns:sodipodi="http://sodipodi.sourceforge.net/DTD/sodipodi-0.dtd"
   xmlns:inkscape="http://www.inkscape.org/namespaces/inkscape"
   version="1.1"
   id="Capa_1"
   x="0px"
   y="0px"
   viewBox="0 0 27.02 27.02"
   style="enable-background:new 0 0 27.02 27.02;"
   xml:space="preserve"
   sodipodi:docname="gohome.svg"
   inkscape:version="0.92.4 (unknown)"><metadata
   id="metadata45"><rdf:RDF><cc:Work
       rdf:about=""><dc:format>image/svg+xml</dc:format><dc:type
         rdf:resource="http://purl.org/dc/dcmitype/StillImage" /></cc:Work></rdf:RDF></metadata><defs
   id="defs43">
	
	
	
</defs><sodipodi:namedview
   pagecolor="#ffffff"
   bordercolor="#666666"
   borderopacity="1"
   objecttolerance="10"
   gridtolerance="10"
   guidetolerance="10"
   inkscape:pageopacity="0"
   inkscape:pageshadow="2"
   inkscape:window-width="1555"
   inkscape:window-height="876"
   id="namedview41"
   showgrid="false"
   inkscape:zoom="11.313709"
   inkscape:cx="25.30305"
   inkscape:cy="12.074475"
   inkscape:window-x="45"
   inkscape:window-y="24"
   inkscape:window-maximized="1"
   inkscape:current-layer="Capa_1"
   showguides="true"
   inkscape:guide-bbox="true"
   inkscape:snap-bbox="true"
   inkscape:bbox-paths="true"
   inkscape:bbox-nodes="true"
   inkscape:snap-bbox-edge-midpoints="true"
   inkscape:snap-bbox-midpoints="true"
   inkscape:object-paths="true"
   inkscape:snap-intersection-paths="true"
   inkscape:snap-smooth-nodes="true"
   inkscape:snap-midpoints="true"
   inkscape:snap-object-midpoints="true"
   inkscape:snap-center="true"
   inkscape:snap-text-baseline="true"
   inkscape:snap-global="true"><sodipodi:guide
     position="0,0"
     orientation="0,27.02"
     id="guide101"
     inkscape:locked="false" /><sodipodi:guide
     position="27.02,0"
     orientation="-27.02,0"
     id="guide103"
     inkscape:locked="false" /><sodipodi:guide
     position="27.02,27.02"
     orientation="0,-27.02"
     id="guide105"
     inkscape:locked="false" /><sodipodi:guide
     position="0,27.02"
     orientation="27.02,0"
     id="guide107"
     inkscape:locked="false" /></sodipodi:namedview>

<g
   id="g10"
   transform="matrix(1.1925137,0,0,1.1925137,-2.586482,-2.7115457)">
</g>
<g
   id="g12"
   transform="matrix(1.1925137,0,0,1.1925137,-2.586482,-2.7115457)">
</g>
<g
   id="g14"
   transform="matrix(1.1925137,0,0,1.1925137,-2.586482,-2.7115457)">
</g>
<g
   id="g16"
   transform="matrix(1.1925137,0,0,1.1925137,-2.586482,-2.7115457)">
</g>
<g
   id="g18"
   transform="matrix(1.1925137,0,0,1.1925137,-2.586482,-2.7115457)">
</g>
<g
   id="g20"
   transform="matrix(1.1925137,0,0,1.1925137,-2.586482,-2.7115457)">
</g>
<g
   id="g22"
   transform="matrix(1.1925137,0,0,1.1925137,-2.586482,-2.7115457)">
</g>
<g
   id="g24"
   transform="matrix(1.1925137,0,0,1.1925137,-2.586482,-2.7115457)">
</g>
<g
   id="g26"
   transform="matrix(1.1925137,0,0,1.1925137,-2.586482,-2.7115457)">
</g>
<g
   id="g28"
   transform="matrix(1.1925137,0,0,1.1925137,-2.586482,-2.7115457)">
</g>
<g
   id="g30"
   transform="matrix(1.1925137,0,0,1.1925137,-2.586482,-2.7115457)">
</g>
<g
   id="g32"
   transform="matrix(1.1925137,0,0,1.1925137,-2.586482,-2.7115457)">
</g>
<g
   id="g34"
   transform="matrix(1.1925137,0,0,1.1925137,-2.586482,-2.7115457)">
</g>
<g
   id="g36"
   transform="matrix(1.1925137,0,0,1.1925137,-2.586482,-2.7115457)">
</g>
<g
   id="g38"
   transform="matrix(1.1925137,0,0,1.1925137,-2.586482,-2.7115457)">
</g>
<g
   id="g139"><circle
     r="0.50516808"
     cy="6.1403208"
     cx="21.909355"
     id="path68"
     style="opacity:1;fill:#000000;fill-opacity:1;stroke:none;stroke-width:0.39427757;stroke-linecap:square;stroke-linejoin:miter;stroke-miterlimit:4;stroke-dasharray:none;stroke-dashoffset:0;stroke-opacity:1;paint-order:markers stroke fill" /><path
     style="fill:#6600ff;stroke-width:1"
     d="m 3.7637012,24.946019 c 0,0 -0.024,0.604 0.566,0.604 0.734,0 6.8109998,-0.0081 6.8109998,-0.0081 l 0.01,-5.580999 c 0,0 -0.096,-0.920001 0.796999,-0.920001 h 2.826001 c 1.055999,0 0.990999,0.920001 0.990999,0.920001 l -0.01201,5.562999 c 0,0 5.762,0 6.667,0 0.748999,0 0.714999,-0.752 0.714999,-0.752 v -10.2889 L 13.7387,6.1250195 3.7637012,14.483019 c 0,0 0,10.463 0,10.463 z"
     id="path2"
     inkscape:connector-curvature="0" /><path
     style="fill:#ff00cc;stroke-width:1"
     d="m 0,15.086089 c 0,0 0.84699988,1.560999 2.6939998,0 L 13.731999,5.7480886 24.081,15.028089 c 2.138001,1.542 2.939,0 2.939,0 L 13.731999,2.9910887 Z"
     id="path4"
     inkscape:connector-curvature="0" /><polygon
     transform="translate(0.08970138,1.9765419)"
     style="fill:#2c89a0"
     points="23.83,4.275 21.168,4.275 21.179,7.503 23.83,9.752 "
     id="polygon6" /><path
     inkscape:connector-curvature="0"
     id="rect50"
     d="m 11.716206,10.326803 v 1.52394 h 1.52394 v -1.52394 z m 1.941054,0 v 1.52394 h 1.525035 v -1.52394 z m -1.941054,1.941052 v 1.523941 h 1.52394 v -1.523941 z m 1.941054,0 v 1.523941 h 1.525035 v -1.523941 z"
     style="opacity:1;fill:#ffffff;fill-opacity:1;stroke:none;stroke-width:0.56052983;stroke-linecap:square;stroke-linejoin:miter;stroke-miterlimit:4;stroke-dasharray:none;stroke-dashoffset:0;stroke-opacity:1;paint-order:markers stroke fill" /><g
     transform="translate(0.25418669,0.07001974)"
     id="g66"><path
       inkscape:connector-curvature="0"
       id="path58"
       d="m 5.329472,18.971 v 1.523941 h 1.52394 V 18.971 Z m 1.941054,0 v 1.523941 H 8.79556 V 18.971 Z m -1.941054,1.941053 v 1.523941 h 1.52394 v -1.523941 z m 1.941054,0 v 1.523941 H 8.79556 v -1.523941 z"
       style="opacity:1;fill:#ffffff;fill-opacity:1;stroke:none;stroke-width:0.56052983;stroke-linecap:square;stroke-linejoin:miter;stroke-miterlimit:4;stroke-dasharray:none;stroke-dashoffset:0;stroke-opacity:1;paint-order:markers stroke fill" /><path
       style="opacity:1;fill:#ffffff;fill-opacity:1;stroke:none;stroke-width:0.56052983;stroke-linecap:square;stroke-linejoin:miter;stroke-miterlimit:4;stroke-dasharray:none;stroke-dashoffset:0;stroke-opacity:1;paint-order:markers stroke fill"
       d="m 17.594569,18.971 v 1.523941 h 1.52394 V 18.971 Z m 1.941054,0 v 1.523941 h 1.525034 V 18.971 Z m -1.941054,1.941053 v 1.523941 h 1.52394 v -1.523941 z m 1.941054,0 v 1.523941 h 1.525034 v -1.523941 z"
       id="path62"
       inkscape:connector-curvature="0" /></g><circle
     style="opacity:1;fill:#000000;fill-opacity:1;stroke:none;stroke-width:0.51169771;stroke-linecap:square;stroke-linejoin:miter;stroke-miterlimit:4;stroke-dasharray:none;stroke-dashoffset:0;stroke-opacity:1;paint-order:markers stroke fill"
     id="circle70"
     cx="22.691668"
     cy="5.2075648"
     r="0.65561271" /><circle
     r="0.39985687"
     cy="4.5506234"
     cx="21.758913"
     id="circle72"
     style="opacity:1;fill:#000000;fill-opacity:1;stroke:none;stroke-width:0.31208342;stroke-linecap:square;stroke-linejoin:miter;stroke-miterlimit:4;stroke-dasharray:none;stroke-dashoffset:0;stroke-opacity:1;paint-order:markers stroke fill" /><circle
     style="opacity:1;fill:#000000;fill-opacity:1;stroke:none;stroke-width:0.32868919;stroke-linecap:square;stroke-linejoin:miter;stroke-miterlimit:4;stroke-dasharray:none;stroke-dashoffset:0;stroke-opacity:1;paint-order:markers stroke fill"
     id="circle74"
     cx="23.496458"
     cy="4.1889305"
     r="0.42113298" /><circle
     r="0.51332933"
     cy="3.7421329"
     cx="22.546125"
     id="circle76"
     style="opacity:1;fill:#000000;fill-opacity:1;stroke:none;stroke-width:0.40064728;stroke-linecap:square;stroke-linejoin:miter;stroke-miterlimit:4;stroke-dasharray:none;stroke-dashoffset:0;stroke-opacity:1;paint-order:markers stroke fill" /><circle
     transform="scale(1,-1)"
     style="opacity:1;fill:#000000;fill-opacity:1;stroke:none;stroke-width:0.31208342;stroke-linecap:square;stroke-linejoin:miter;stroke-miterlimit:4;stroke-dasharray:none;stroke-dashoffset:0;stroke-opacity:1;paint-order:markers stroke fill"
     id="circle78"
     cx="21.645441"
     cy="-3.2456908"
     r="0.39985687" /><circle
     transform="scale(1,-1)"
     r="0.42113298"
     cy="-3.2244151"
     cx="23.496458"
     id="circle80"
     style="opacity:1;fill:#000000;fill-opacity:1;stroke:none;stroke-width:0.32868919;stroke-linecap:square;stroke-linejoin:miter;stroke-miterlimit:4;stroke-dasharray:none;stroke-dashoffset:0;stroke-opacity:1;paint-order:markers stroke fill" /><circle
     transform="scale(1,-1)"
     style="opacity:1;fill:#000000;fill-opacity:1;stroke:none;stroke-width:0.63312739;stroke-linecap:square;stroke-linejoin:miter;stroke-miterlimit:4;stroke-dasharray:none;stroke-dashoffset:0;stroke-opacity:1;paint-order:markers stroke fill"
     id="circle82"
     cx="22.546125"
     cy="-2.2811759"
     r="0.8111943" /></g></svg>